<svg width="32" height="32" viewBox="0 0 256 256" fill="none" xmlns="http://www.w3.org/2000/svg">
<path d="M242.037 235.054H13.9637C6.25174 235.054 0 228.803 0 221.091V55.0784C0 47.3665 6.25174 41.1148 13.9637 41.1148H242.037C249.749 41.1148 256 47.3665 256 55.0784V221.091C256 228.803 249.749 235.054 242.037 235.054Z" fill="#F2E301"/>
<rect x="68.2668" y="93.8667" width="34.1334" height="59.7334" rx="17.0667" fill="#181C2A"/>
<rect x="153.6" y="93.8667" width="34.1334" height="59.7334" rx="17.0667" fill="#181C2A"/>
<path d="M34.9094 241.105C34.9094 246.319 34.9094 248.926 35.924 250.917C36.8165 252.669 38.2407 254.093 39.9923 254.985C41.9836 256 44.5904 256 49.804 256H97.5907C102.805 256 105.411 256 107.403 254.985C109.154 254.093 110.578 252.669 111.471 250.917C112.485 248.926 112.485 246.319 112.485 241.105V235.054H34.9094V241.105Z" fill="url(#paint0_linear_778_221)"/>
<path d="M143.515 241.105C143.515 246.319 143.515 248.926 144.529 250.917C145.422 252.669 146.846 254.093 148.598 254.985C150.589 256 153.196 256 158.409 256H206.196C211.41 256 214.016 256 216.008 254.985C217.76 254.093 219.184 252.669 220.076 250.917C221.091 248.926 221.091 246.319 221.091 241.105V235.054H143.515V241.105Z" fill="url(#paint1_linear_778_221)"/>
<path d="M151.273 41.1152H213.334V14.8946C213.334 9.681 213.334 7.07418 212.319 5.08286C211.427 3.33124 210.003 1.90713 208.251 1.01463C206.26 0 203.653 0 198.439 0H166.168C160.954 0 158.347 0 156.356 1.01463C154.604 1.90713 153.18 3.33124 152.288 5.08286C151.273 7.07418 151.273 9.681 151.273 14.8946V41.1152Z" fill="url(#paint2_linear_778_221)"/>
<path d="M42.6667 41.1152H104.727V14.8946C104.727 9.681 104.727 7.07418 103.713 5.08286C102.821 3.33124 101.396 1.90713 99.6446 1.01463C97.6533 0 95.0467 0 89.8328 0H57.5613C52.3474 0 49.7409 0 47.7495 1.01463C45.9978 1.90713 44.5735 3.33124 43.6814 5.08286C42.6667 7.07418 42.6667 9.681 42.6667 14.8946V41.1152Z" fill="url(#paint3_linear_778_221)"/>
<defs>
<linearGradient id="paint0_linear_778_221" x1="73.6974" y1="235.054" x2="73.6974" y2="243.588" gradientUnits="userSpaceOnUse">
<stop stop-color="#D1C400"/>
<stop offset="1" stop-color="#F2E301"/>
</linearGradient>
<linearGradient id="paint1_linear_778_221" x1="182.303" y1="235.054" x2="182.303" y2="243.588" gradientUnits="userSpaceOnUse">
<stop stop-color="#D1C400"/>
<stop offset="1" stop-color="#F2E301"/>
</linearGradient>
<linearGradient id="paint2_linear_778_221" x1="182.303" y1="27.1516" x2="182.303" y2="41.1152" gradientUnits="userSpaceOnUse">
<stop stop-color="#F2E301"/>
<stop offset="1" stop-color="#D1C400"/>
</linearGradient>
<linearGradient id="paint3_linear_778_221" x1="73.6971" y1="27.1516" x2="73.6971" y2="41.1152" gradientUnits="userSpaceOnUse">
<stop stop-color="#F2E301"/>
<stop offset="1" stop-color="#D1C400"/>
</linearGradient>
</defs>
</svg>